<svg width="108" height="95" viewBox="0 0 108 95" fill="none" xmlns="http://www.w3.org/2000/svg">
<g clip-path="url(#clip0_260_1466)">
<path d="M78.1914 2.87598C79.2606 2.50245 79.9376 2.60449 80.374 2.87012C80.7301 3.08677 80.9988 3.44552 81.0908 4.27441C81.1778 5.05848 81.0648 6.03258 80.8193 7.06543L80.707 7.50977C77.6796 18.7149 72.0749 29.2361 64.2402 38.3838L67.9619 42.0615C77.142 34.0021 86.6159 26.2156 98.2471 25.0508C100.602 24.8152 102.45 25.0439 103.547 25.7949L103.756 25.9521C104.762 26.7829 105.111 28.5831 104.221 30.3047C103.292 32.1006 101.418 33.6059 98.9814 35.1367C89.8498 40.8432 79.023 43.973 67.8818 44.1025L67.7061 49.3398C79.1733 50.247 90.084 54.1329 99.127 60.5039V60.5049C100.669 61.5948 102.068 62.981 102.823 64.3057C103.559 65.5964 103.47 66.3575 103.095 66.9258C102.83 67.327 102.332 67.7339 101.471 68.084C100.611 68.4335 99.5539 68.6577 98.4199 68.7891L98.4131 68.79C85.9901 70.2594 73.5619 63.7052 66.1699 54.1602C65.2038 52.6856 64.231 51.24 63.2734 49.8262L58.8252 52.6006C59.7126 54.1513 60.7181 55.6588 61.8262 57.1104C67.777 66.2224 72.7073 75.3839 72.4072 85.0771V85.0781C72.3111 88.2189 71.3009 90.5391 69.4834 91.3018L69.4814 91.3027C68.001 91.9251 65.8037 91.517 64.1523 90.249C62.7127 89.1435 61.6745 87.5631 60.7236 85.6455L60.3203 84.8037C56.243 75.9305 54.8796 66.2673 56.3213 56.8086C56.5673 55.5514 56.8042 54.3038 57.0361 53.0703L51.9033 51.9961C51.6084 53.2753 51.3626 54.5605 51.1621 55.8486C49.3096 65.2724 47.0305 74.2834 41.5029 81.7295C40.46 83.1314 39.081 84.4516 37.6445 85.2471C36.2227 86.0344 34.9917 86.1893 33.9346 85.8018V85.8008L33.7383 85.7227C32.7827 85.302 32.1752 84.4752 31.8691 83.1094C31.5266 81.5802 31.6579 79.6506 32.1045 77.8662C34.7159 67.5432 40.6768 58.1171 49.2744 50.8125L46.998 47.3545C47.3748 47.4622 47.7513 47.5708 48.127 47.6816L49.7031 42.6797C37.1275 38.4658 24.9522 33.244 17.7188 24.0801L17.3779 23.6406C16.7642 22.8333 16.3216 22.0133 16.1533 21.3535C15.9983 20.7454 16.1347 20.5927 16.1895 20.5283L16.1904 20.5264C16.2882 20.4112 16.5584 20.2012 17.2744 20.0938C17.9855 19.987 18.872 20.026 19.8135 20.1641L19.8242 20.165C33.8291 22.1575 44.7926 32.0382 55.2744 42.0811L60.7061 47.2852L59.6875 39.832L59.6387 39.4854L63.1709 39.4258C64.3264 26.5943 65.9671 13.8553 74.6416 5.28516L75.0605 4.87988C75.9772 4.01033 77.1185 3.25086 78.1914 2.87598ZM4.57617 46.1367C9.77442 42.1855 17.6463 42.0615 25.5527 43.0215C32.2941 43.8397 38.9499 45.1448 45.4561 46.9229C33.5087 52.5563 19.1673 54.0214 6.13379 50.8662L6.13086 50.8652C5.16513 50.6326 4.33113 50.3745 3.68262 50.0439C3.03623 49.7145 2.78728 49.4217 2.69043 49.2285L2.68945 49.2266L2.66016 49.1582C2.59495 48.9823 2.56888 48.6791 2.83691 48.1279C3.1168 47.5526 3.63384 46.92 4.28809 46.3682L4.57617 46.1367ZM44.4561 6.28125C44.4854 6.26422 44.6841 6.16055 45.2842 6.42676C45.919 6.70841 46.6315 7.2644 47.209 7.90332V7.9043C54.1746 15.6102 56.1855 25.9822 57.6045 36.7725C48.6951 28.4198 42.2238 17.9744 43.9629 7.68457C44.051 7.16429 44.1551 6.79317 44.2764 6.53906C44.3747 6.33319 44.443 6.28851 44.4561 6.28125Z" fill="#F4D738" stroke="#202020" stroke-width="5.24545"/>
<path d="M53.6748 35.8535C60.9416 35.8535 66.3768 41.1289 66.377 47.1016C66.377 53.0743 60.9417 58.3506 53.6748 58.3506C46.408 58.3505 40.9736 53.0742 40.9736 47.1016C40.9738 41.129 46.4081 35.8536 53.6748 35.8535Z" fill="#FFB2EF" stroke="#202020" stroke-width="5.24545"/>
</g>
<defs>
<clipPath id="clip0_260_1466">
<rect width="107.35" height="94.2041" fill="white"/>
</clipPath>
</defs>
</svg>
